ffmpeg version N-121303-ga53553a3c7 Copyright (c) 2000-2025 the FFmpeg developers
  built with Apple clang version 16.0.0 (clang-1600.0.26.6)
  configuration: --disable-doc --enable-libx264 --enable-encoder=libx264 --enable-encoder=aac --enable-gpl
  libavutil      60. 13.100 / 60. 13.100
  libavcodec     62. 16.100 / 62. 16.100
  libavformat    62.  6.100 / 62.  6.100
  libavdevice    62.  2.100 / 62.  2.100
  libavfilter    11.  9.100 / 11.  9.100
  libswscale      9.  3.100 /  9.  3.100
  libswresample   6.  2.100 /  6.  2.100
[Parsed_mswitch_0 @ 0x159804880] [MSwitch Filter] Initializing with 3 inputs, tube_size=30
[Parsed_mswitch_0 @ 0x159804880] [MSwitch Filter] Uninitialized
[h264 @ 0x158f050d0] non-existing PPS 0 referenced
    Last message repeated 8 times
[h264 @ 0x158f050d0] no frame!
[h264 @ 0x158f050d0] non-existing PPS 0 referenced
    Last message repeated 8 times
[h264 @ 0x158f050d0] no frame!
[h264 @ 0x158f050d0] non-existing PPS 0 referenced
    Last message repeated 8 times
[h264 @ 0x158f050d0] no frame!
[h264 @ 0x158f050d0] non-existing PPS 0 referenced
    Last message repeated 8 times
[h264 @ 0x158f050d0] no frame!
[h264 @ 0x158f050d0] non-existing PPS 0 referenced
    Last message repeated 8 times
[h264 @ 0x158f050d0] no frame!
[h264 @ 0x158f050d0] non-existing PPS 0 referenced
    Last message repeated 8 times
[h264 @ 0x158f050d0] no frame!
[h264 @ 0x158f050d0] non-existing PPS 0 referenced
    Last message repeated 8 times
[h264 @ 0x158f050d0] no frame!
[h264 @ 0x158f050d0] non-existing PPS 0 referenced
    Last message repeated 8 times
[h264 @ 0x158f050d0] no frame!
[h264 @ 0x158f050d0] non-existing PPS 0 referenced
    Last message repeated 8 times
[h264 @ 0x158f050d0] no frame!
[h264 @ 0x158f050d0] non-existing PPS 0 referenced
    Last message repeated 8 times
[h264 @ 0x158f050d0] no frame!
[h264 @ 0x158f050d0] non-existing PPS 0 referenced
    Last message repeated 8 times
[h264 @ 0x158f050d0] no frame!
[h264 @ 0x158f050d0] non-existing PPS 0 referenced
    Last message repeated 8 times
[h264 @ 0x158f050d0] no frame!
[h264 @ 0x158f050d0] non-existing PPS 0 referenced
    Last message repeated 8 times
[h264 @ 0x158f050d0] no frame!
[h264 @ 0x158f050d0] non-existing PPS 0 referenced
    Last message repeated 8 times
[h264 @ 0x158f050d0] no frame!
[h264 @ 0x158f050d0] non-existing PPS 0 referenced
    Last message repeated 8 times
[h264 @ 0x158f050d0] no frame!
[h264 @ 0x158f050d0] non-existing PPS 0 referenced
    Last message repeated 8 times
[h264 @ 0x158f050d0] no frame!
[h264 @ 0x158f050d0] non-existing PPS 0 referenced
    Last message repeated 8 times
[h264 @ 0x158f050d0] no frame!
[h264 @ 0x158f050d0] non-existing PPS 0 referenced
    Last message repeated 8 times
[h264 @ 0x158f050d0] no frame!
[h264 @ 0x158f050d0] non-existing PPS 0 referenced
    Last message repeated 8 times
[h264 @ 0x158f050d0] no frame!
[h264 @ 0x158f050d0] non-existing PPS 0 referenced
    Last message repeated 8 times
[h264 @ 0x158f050d0] no frame!
[h264 @ 0x158f050d0] non-existing PPS 0 referenced
    Last message repeated 8 times
[h264 @ 0x158f050d0] no frame!
[h264 @ 0x158f050d0] non-existing PPS 0 referenced
    Last message repeated 8 times
[h264 @ 0x158f050d0] no frame!
[h264 @ 0x158f050d0] non-existing PPS 0 referenced
    Last message repeated 8 times
[h264 @ 0x158f050d0] no frame!
[h264 @ 0x158f050d0] non-existing PPS 0 referenced
    Last message repeated 8 times
[h264 @ 0x158f050d0] no frame!
[h264 @ 0x158f050d0] non-existing PPS 0 referenced
    Last message repeated 8 times
[h264 @ 0x158f050d0] no frame!
[h264 @ 0x158f050d0] non-existing PPS 0 referenced
    Last message repeated 8 times
[h264 @ 0x158f050d0] no frame!
[h264 @ 0x158f050d0] non-existing PPS 0 referenced
    Last message repeated 8 times
[h264 @ 0x158f050d0] no frame!
[h264 @ 0x158f050d0] non-existing PPS 0 referenced
    Last message repeated 8 times
[h264 @ 0x158f050d0] no frame!
[h264 @ 0x158f050d0] non-existing PPS 0 referenced
    Last message repeated 8 times
[h264 @ 0x158f050d0] no frame!
[h264 @ 0x158f050d0] non-existing PPS 0 referenced
    Last message repeated 8 times
[h264 @ 0x158f050d0] no frame!
[h264 @ 0x158f050d0] non-existing PPS 0 referenced
    Last message repeated 8 times
[h264 @ 0x158f050d0] no frame!
[h264 @ 0x158f050d0] non-existing PPS 0 referenced
    Last message repeated 8 times
[h264 @ 0x158f050d0] no frame!
[h264 @ 0x158f050d0] non-existing PPS 0 referenced
    Last message repeated 8 times
[h264 @ 0x158f050d0] no frame!
[h264 @ 0x158f050d0] non-existing PPS 0 referenced
    Last message repeated 8 times
[h264 @ 0x158f050d0] no frame!
[h264 @ 0x158f050d0] non-existing PPS 0 referenced
    Last message repeated 8 times
[h264 @ 0x158f050d0] no frame!
[h264 @ 0x158f050d0] non-existing PPS 0 referenced
    Last message repeated 8 times
[h264 @ 0x158f050d0] no frame!
[h264 @ 0x158f050d0] non-existing PPS 0 referenced
    Last message repeated 8 times
[h264 @ 0x158f050d0] no frame!
[h264 @ 0x158f050d0] non-existing PPS 0 referenced
    Last message repeated 8 times
[h264 @ 0x158f050d0] no frame!
[h264 @ 0x158f050d0] non-existing PPS 0 referenced
    Last message repeated 8 times
[h264 @ 0x158f050d0] no frame!
[h264 @ 0x158f050d0] non-existing PPS 0 referenced
    Last message repeated 8 times
[h264 @ 0x158f050d0] no frame!
[h264 @ 0x158f050d0] non-existing PPS 0 referenced
    Last message repeated 8 times
[h264 @ 0x158f050d0] no frame!
[h264 @ 0x158f050d0] non-existing PPS 0 referenced
    Last message repeated 8 times
[h264 @ 0x158f050d0] no frame!
[h264 @ 0x158f050d0] non-existing PPS 0 referenced
    Last message repeated 8 times
[h264 @ 0x158f050d0] no frame!
[h264 @ 0x158f050d0] non-existing PPS 0 referenced
    Last message repeated 8 times
[h264 @ 0x158f050d0] no frame!
[h264 @ 0x158f050d0] non-existing PPS 0 referenced
    Last message repeated 8 times
[h264 @ 0x158f050d0] no frame!
[h264 @ 0x158f050d0] non-existing PPS 0 referenced
    Last message repeated 8 times
[h264 @ 0x158f050d0] no frame!
Input #0, mpegts, from 'udp://127.0.0.1:12350?fifo_size=1024000&overrun_nonfatal=1&timeout=1000000&buffer_size=65536':
  Duration: N/A, start: 2133.866667, bitrate: N/A
  Program 1 
    Metadata:
      service_name    : Service01
      service_provider: FFmpeg
  Stream #0:0[0x100]: Video: h264 (Constrained Baseline) ([27][0][0][0] / 0x001B), yuv420p(progressive), 1280x720 [SAR 1:1 DAR 16:9], 30 fps, 30 tbr, 90k tbn, start 2133.866667
[h264 @ 0x158f0e250] non-existing PPS 0 referenced
    Last message repeated 8 times
[h264 @ 0x158f0e250] no frame!
[h264 @ 0x158f0e250] non-existing PPS 0 referenced
    Last message repeated 8 times
[h264 @ 0x158f0e250] no frame!
[h264 @ 0x158f0e250] non-existing PPS 0 referenced
    Last message repeated 8 times
[h264 @ 0x158f0e250] no frame!
[h264 @ 0x158f0e250] non-existing PPS 0 referenced
    Last message repeated 8 times
[h264 @ 0x158f0e250] no frame!
[h264 @ 0x158f0e250] non-existing PPS 0 referenced
    Last message repeated 8 times
[h264 @ 0x158f0e250] no frame!
[h264 @ 0x158f0e250] non-existing PPS 0 referenced
    Last message repeated 8 times
[h264 @ 0x158f0e250] no frame!
[h264 @ 0x158f0e250] non-existing PPS 0 referenced
    Last message repeated 8 times
[h264 @ 0x158f0e250] no frame!
[h264 @ 0x158f0e250] non-existing PPS 0 referenced
    Last message repeated 8 times
[h264 @ 0x158f0e250] no frame!
[h264 @ 0x158f0e250] non-existing PPS 0 referenced
    Last message repeated 8 times
[h264 @ 0x158f0e250] no frame!
[h264 @ 0x158f0e250] non-existing PPS 0 referenced
    Last message repeated 8 times
[h264 @ 0x158f0e250] no frame!
[h264 @ 0x158f0e250] non-existing PPS 0 referenced
    Last message repeated 8 times
[h264 @ 0x158f0e250] no frame!
[h264 @ 0x158f0e250] non-existing PPS 0 referenced
    Last message repeated 8 times
[h264 @ 0x158f0e250] no frame!
[h264 @ 0x158f0e250] non-existing PPS 0 referenced
    Last message repeated 8 times
[h264 @ 0x158f0e250] no frame!
[h264 @ 0x158f0e250] non-existing PPS 0 referenced
    Last message repeated 8 times
[h264 @ 0x158f0e250] no frame!
[h264 @ 0x158f0e250] non-existing PPS 0 referenced
    Last message repeated 8 times
[h264 @ 0x158f0e250] no frame!
[h264 @ 0x158f0e250] non-existing PPS 0 referenced
    Last message repeated 8 times
[h264 @ 0x158f0e250] no frame!
[h264 @ 0x158f0e250] non-existing PPS 0 referenced
    Last message repeated 8 times
[h264 @ 0x158f0e250] no frame!
[h264 @ 0x158f0e250] non-existing PPS 0 referenced
    Last message repeated 8 times
[h264 @ 0x158f0e250] no frame!
[h264 @ 0x158f0e250] non-existing PPS 0 referenced
    Last message repeated 8 times
[h264 @ 0x158f0e250] no frame!
[h264 @ 0x158f0e250] non-existing PPS 0 referenced
    Last message repeated 8 times
[h264 @ 0x158f0e250] no frame!
[h264 @ 0x158f0e250] non-existing PPS 0 referenced
    Last message repeated 8 times
[h264 @ 0x158f0e250] no frame!
[h264 @ 0x158f0e250] non-existing PPS 0 referenced
    Last message repeated 8 times
[h264 @ 0x158f0e250] no frame!
[h264 @ 0x158f0e250] non-existing PPS 0 referenced
    Last message repeated 8 times
[h264 @ 0x158f0e250] no frame!
[h264 @ 0x158f0e250] non-existing PPS 0 referenced
    Last message repeated 8 times
[h264 @ 0x158f0e250] no frame!
[h264 @ 0x158f0e250] non-existing PPS 0 referenced
    Last message repeated 8 times
[h264 @ 0x158f0e250] no frame!
[h264 @ 0x158f0e250] non-existing PPS 0 referenced
    Last message repeated 8 times
[h264 @ 0x158f0e250] no frame!
[h264 @ 0x158f0e250] non-existing PPS 0 referenced
    Last message repeated 8 times
[h264 @ 0x158f0e250] no frame!
Input #1, mpegts, from 'udp://127.0.0.1:12351?fifo_size=1024000&overrun_nonfatal=1&timeout=1000000&buffer_size=65536':
  Duration: N/A, start: 2138.500000, bitrate: N/A
  Program 1 
    Metadata:
      service_name    : Service01
      service_provider: FFmpeg
  Stream #1:0[0x100]: Video: h264 (Constrained Baseline) ([27][0][0][0] / 0x001B), yuv420p(progressive), 1280x720 [SAR 1:1 DAR 16:9], 30 fps, 30 tbr, 90k tbn, start 2138.500000
[h264 @ 0x13aa07480] non-existing PPS 0 referenced
    Last message repeated 8 times
[h264 @ 0x13aa07480] no frame!
[h264 @ 0x13aa07480] non-existing PPS 0 referenced
    Last message repeated 8 times
[h264 @ 0x13aa07480] no frame!
[h264 @ 0x13aa07480] non-existing PPS 0 referenced
    Last message repeated 8 times
[h264 @ 0x13aa07480] no frame!
[h264 @ 0x13aa07480] non-existing PPS 0 referenced
    Last message repeated 8 times
[h264 @ 0x13aa07480] no frame!
[h264 @ 0x13aa07480] non-existing PPS 0 referenced
    Last message repeated 8 times
[h264 @ 0x13aa07480] no frame!
[h264 @ 0x13aa07480] non-existing PPS 0 referenced
    Last message repeated 8 times
[h264 @ 0x13aa07480] no frame!
[h264 @ 0x13aa07480] non-existing PPS 0 referenced
    Last message repeated 8 times
[h264 @ 0x13aa07480] no frame!
[h264 @ 0x13aa07480] non-existing PPS 0 referenced
    Last message repeated 8 times
[h264 @ 0x13aa07480] no frame!
[h264 @ 0x13aa07480] non-existing PPS 0 referenced
    Last message repeated 8 times
[h264 @ 0x13aa07480] no frame!
[h264 @ 0x13aa07480] non-existing PPS 0 referenced
    Last message repeated 8 times
[h264 @ 0x13aa07480] no frame!
[h264 @ 0x13aa07480] non-existing PPS 0 referenced
    Last message repeated 8 times
[h264 @ 0x13aa07480] no frame!
[h264 @ 0x13aa07480] non-existing PPS 0 referenced
    Last message repeated 8 times
[h264 @ 0x13aa07480] no frame!
[h264 @ 0x13aa07480] non-existing PPS 0 referenced
    Last message repeated 8 times
[h264 @ 0x13aa07480] no frame!
[h264 @ 0x13aa07480] non-existing PPS 0 referenced
    Last message repeated 8 times
[h264 @ 0x13aa07480] no frame!
[h264 @ 0x13aa07480] non-existing PPS 0 referenced
    Last message repeated 8 times
[h264 @ 0x13aa07480] no frame!
[h264 @ 0x13aa07480] non-existing PPS 0 referenced
    Last message repeated 8 times
[h264 @ 0x13aa07480] no frame!
[h264 @ 0x13aa07480] non-existing PPS 0 referenced
    Last message repeated 8 times
[h264 @ 0x13aa07480] no frame!
[h264 @ 0x13aa07480] non-existing PPS 0 referenced
    Last message repeated 8 times
[h264 @ 0x13aa07480] no frame!
[h264 @ 0x13aa07480] non-existing PPS 0 referenced
    Last message repeated 8 times
[h264 @ 0x13aa07480] no frame!
[h264 @ 0x13aa07480] non-existing PPS 0 referenced
    Last message repeated 8 times
[h264 @ 0x13aa07480] no frame!
[h264 @ 0x13aa07480] non-existing PPS 0 referenced
    Last message repeated 8 times
[h264 @ 0x13aa07480] no frame!
Input #2, mpegts, from 'udp://127.0.0.1:12352?fifo_size=1024000&overrun_nonfatal=1&timeout=1000000&buffer_size=65536':
  Duration: N/A, start: 2142.700000, bitrate: N/A
  Program 1 
    Metadata:
      service_name    : Service01
      service_provider: FFmpeg
  Stream #2:0[0x100]: Video: h264 (Constrained Baseline) ([27][0][0][0] / 0x001B), yuv420p(progressive), 1280x720 [SAR 1:1 DAR 16:9], 30 fps, 30 tbr, 90k tbn, start 2142.700000
MSwitch enabled, initializing...
Debug: sources_backup = s0=local;s1=local;s2=local
[MSwitch] Initializing native MSwitch...
[MSwitch] Parsing sources: s0=local;s1=local;s2=local
[MSwitch] Successfully parsed 3 sources
[MSwitch] Configuration: mode=graceful, ingest=hot, sources=3
[MSwitch] Active source: 0 (s0)
[MSwitch] Webhook config: enable=1, port=8099
[MSwitch] Command queue initialized
[MSwitch] Starting webhook server on port 8099
[MSwitch] Starting webhook server thread on port 8099
[MSwitch] Webhook server listening on port 8099
[MSwitch] Webhook server started on port 8099
[MSwitch] [DEBUG] Auto-failover initialized: enable=0, recovery_delay=5000
[MSwitch] [DEBUG] Auto-failover disabled by default
[MSwitch] Skipping subprocess creation for lavfi inputs
[MSwitch] Skipping UDP proxy thread for lavfi inputs
[MSwitch] MSwitch initialized with 3 sources
[MSwitch] MSwitch proxy listening on ports 12350-12352, forwarding to port 12400
[MSwitch] Interactive commands: 0-2 (switch source), m (status), ? (help)
[MSwitch] Starting MSwitch controller
[MSwitch] Health monitoring thread disabled - using immediate duplicate frame detection
[MSwitch] MSwitch controller started successfully
Stream mapping:
  Stream #0:0 (h264) -> mswitch
  Stream #1:0 (h264) -> mswitch
  Stream #2:0 (h264) -> mswitch
  fps:default -> Stream #0:0 (libx264)
Press [q] to stop, [?] for help
[Parsed_mswitch_0 @ 0x13a80cbe0] [MSwitch Filter] Initializing with 3 inputs, tube_size=30
[Parsed_mswitch_0 @ 0x13a80cbe0] [MSwitch Filter] Configured: 1280x720, active_input=0
[fc#0 @ 0x15a008200] [MSwitch] Found mswitch filter, connecting to MSwitch
[MSwitch] Filter-based switching initialized (streamselect filter attached)
[MSwitch] Filter setup complete - will use runtime switching via avfilter_process_command
[Parsed_mswitch_0 @ 0x13a80cbe0] [MSwitch Filter] Startup phase complete - all 3 sources ingested
[Parsed_mswitch_0 @ 0x13a80cbe0] [MSwitch] Buffer status (frame 0):
[Parsed_mswitch_0 @ 0x13a80cbe0]   Input 0: 1 frames queued (active: YES)
[Parsed_mswitch_0 @ 0x13a80cbe0]   Input 1: 1 frames queued (active: NO)
[Parsed_mswitch_0 @ 0x13a80cbe0]   Input 2: 0 frames queued (active: NO)
[libx264 @ 0x13a817400] using SAR=1/1
[libx264 @ 0x13a817400] using cpu capabilities: ARMv8 NEON DotProd I8MM
[libx264 @ 0x13a817400] profile Constrained Baseline, level 3.1, 4:2:0, 8-bit
Output #0, mpegts, to 'test_final_working.mts':
  Metadata:
    encoder         : Lavf62.6.100
  Stream #0:0: Video: h264, yuv420p(tv, progressive), 1280x720 [SAR 1:1 DAR 16:9], q=2-31, 30 fps, 90k tbn
    Metadata:
      encoder         : Lavc62.16.100 libx264
    Side data:
      CPB properties: bitrate max/min/avg: 0/0/0 buffer size: 0 vbv_delay: N/A
[Parsed_mswitch_0 @ 0x13a80cbe0] [MSwitch] Buffer status (frame 10):
[Parsed_mswitch_0 @ 0x13a80cbe0]   Input 0: 0 frames queued (active: YES)
[Parsed_mswitch_0 @ 0x13a80cbe0]   Input 1: 0 frames queued (active: NO)
[Parsed_mswitch_0 @ 0x13a80cbe0]   Input 2: 0 frames queued (active: NO)
[Parsed_mswitch_0 @ 0x13a80cbe0] [MSwitch] Buffer status (frame 20):
[Parsed_mswitch_0 @ 0x13a80cbe0]   Input 0: 0 frames queued (active: YES)
[Parsed_mswitch_0 @ 0x13a80cbe0]   Input 1: 0 frames queued (active: NO)
[Parsed_mswitch_0 @ 0x13a80cbe0]   Input 2: 0 frames queued (active: NO)
[Parsed_mswitch_0 @ 0x13a80cbe0] [MSwitch] Buffer status (frame 30):
[Parsed_mswitch_0 @ 0x13a80cbe0]   Input 0: 0 frames queued (active: YES)
[Parsed_mswitch_0 @ 0x13a80cbe0]   Input 1: 0 frames queued (active: NO)
[Parsed_mswitch_0 @ 0x13a80cbe0]   Input 2: 0 frames queued (active: NO)
[Parsed_mswitch_0 @ 0x13a80cbe0] [MSwitch] Buffer status (frame 40):
[Parsed_mswitch_0 @ 0x13a80cbe0]   Input 0: 0 frames queued (active: YES)
[Parsed_mswitch_0 @ 0x13a80cbe0]   Input 1: 0 frames queued (active: NO)
[Parsed_mswitch_0 @ 0x13a80cbe0]   Input 2: 0 frames queued (active: NO)
[Parsed_mswitch_0 @ 0x13a80cbe0] [MSwitch] Buffer status (frame 50):
[Parsed_mswitch_0 @ 0x13a80cbe0]   Input 0: 0 frames queued (active: YES)
[Parsed_mswitch_0 @ 0x13a80cbe0]   Input 1: 0 frames queued (active: NO)
[Parsed_mswitch_0 @ 0x13a80cbe0]   Input 2: 0 frames queued (active: NO)
[Parsed_mswitch_0 @ 0x13a80cbe0] [MSwitch] Buffer status (frame 60):
[Parsed_mswitch_0 @ 0x13a80cbe0]   Input 0: 0 frames queued (active: YES)
[Parsed_mswitch_0 @ 0x13a80cbe0]   Input 1: 0 frames queued (active: NO)
[Parsed_mswitch_0 @ 0x13a80cbe0]   Input 2: 0 frames queued (active: NO)
[Parsed_mswitch_0 @ 0x13a80cbe0] [MSwitch] Buffer status (frame 70):
[Parsed_mswitch_0 @ 0x13a80cbe0]   Input 0: 0 frames queued (active: YES)
[Parsed_mswitch_0 @ 0x13a80cbe0]   Input 1: 0 frames queued (active: NO)
[Parsed_mswitch_0 @ 0x13a80cbe0]   Input 2: 0 frames queued (active: NO)
[Parsed_mswitch_0 @ 0x13a80cbe0] [MSwitch] Buffer status (frame 80):
[Parsed_mswitch_0 @ 0x13a80cbe0]   Input 0: 0 frames queued (active: YES)
[Parsed_mswitch_0 @ 0x13a80cbe0]   Input 1: 0 frames queued (active: NO)
[Parsed_mswitch_0 @ 0x13a80cbe0]   Input 2: 0 frames queued (active: NO)
[Parsed_mswitch_0 @ 0x13a80cbe0] [MSwitch] Buffer status (frame 90):
[Parsed_mswitch_0 @ 0x13a80cbe0]   Input 0: 0 frames queued (active: YES)
[Parsed_mswitch_0 @ 0x13a80cbe0]   Input 1: 0 frames queued (active: NO)
[Parsed_mswitch_0 @ 0x13a80cbe0]   Input 2: 0 frames queued (active: NO)
[Parsed_mswitch_0 @ 0x13a80cbe0] [MSwitch] Buffer status (frame 100):
[Parsed_mswitch_0 @ 0x13a80cbe0]   Input 0: 0 frames queued (active: YES)
[Parsed_mswitch_0 @ 0x13a80cbe0]   Input 1: 0 frames queued (active: NO)
[Parsed_mswitch_0 @ 0x13a80cbe0]   Input 2: 0 frames queued (active: NO)
[Parsed_mswitch_0 @ 0x13a80cbe0] [MSwitch] Buffer status (frame 110):
[Parsed_mswitch_0 @ 0x13a80cbe0]   Input 0: 0 frames queued (active: YES)
[Parsed_mswitch_0 @ 0x13a80cbe0]   Input 1: 0 frames queued (active: NO)
[Parsed_mswitch_0 @ 0x13a80cbe0]   Input 2: 0 frames queued (active: NO)
[Parsed_mswitch_0 @ 0x13a80cbe0] [MSwitch] Buffer status (frame 120):
[Parsed_mswitch_0 @ 0x13a80cbe0]   Input 0: 0 frames queued (active: YES)
[Parsed_mswitch_0 @ 0x13a80cbe0]   Input 1: 0 frames queued (active: NO)
[Parsed_mswitch_0 @ 0x13a80cbe0]   Input 2: 0 frames queued (active: NO)
[Parsed_mswitch_0 @ 0x13a80cbe0] [MSwitch] Buffer status (frame 130):
[Parsed_mswitch_0 @ 0x13a80cbe0]   Input 0: 0 frames queued (active: YES)
[Parsed_mswitch_0 @ 0x13a80cbe0]   Input 1: 0 frames queued (active: NO)
[Parsed_mswitch_0 @ 0x13a80cbe0]   Input 2: 0 frames queued (active: NO)
[Parsed_mswitch_0 @ 0x13a80cbe0] [MSwitch] Buffer status (frame 140):
[Parsed_mswitch_0 @ 0x13a80cbe0]   Input 0: 0 frames queued (active: YES)
[Parsed_mswitch_0 @ 0x13a80cbe0]   Input 1: 0 frames queued (active: NO)
[Parsed_mswitch_0 @ 0x13a80cbe0]   Input 2: 0 frames queued (active: NO)
[Parsed_mswitch_0 @ 0x13a80cbe0] [MSwitch] Buffer status (frame 150):
[Parsed_mswitch_0 @ 0x13a80cbe0]   Input 0: 0 frames queued (active: YES)
[Parsed_mswitch_0 @ 0x13a80cbe0]   Input 1: 0 frames queued (active: NO)
[Parsed_mswitch_0 @ 0x13a80cbe0]   Input 2: 0 frames queued (active: NO)
[Parsed_mswitch_0 @ 0x13a80cbe0] [MSwitch] Buffer status (frame 160):
[Parsed_mswitch_0 @ 0x13a80cbe0]   Input 0: 0 frames queued (active: YES)
[Parsed_mswitch_0 @ 0x13a80cbe0]   Input 1: 0 frames queued (active: NO)
[Parsed_mswitch_0 @ 0x13a80cbe0]   Input 2: 0 frames queued (active: NO)
[Parsed_mswitch_0 @ 0x13a80cbe0] [MSwitch] Buffer status (frame 170):
[Parsed_mswitch_0 @ 0x13a80cbe0]   Input 0: 0 frames queued (active: YES)
[Parsed_mswitch_0 @ 0x13a80cbe0]   Input 1: 0 frames queued (active: NO)
[Parsed_mswitch_0 @ 0x13a80cbe0]   Input 2: 0 frames queued (active: NO)
[Parsed_mswitch_0 @ 0x13a80cbe0] [MSwitch] Buffer status (frame 180):
[Parsed_mswitch_0 @ 0x13a80cbe0]   Input 0: 0 frames queued (active: YES)
[Parsed_mswitch_0 @ 0x13a80cbe0]   Input 1: 0 frames queued (active: NO)
[Parsed_mswitch_0 @ 0x13a80cbe0]   Input 2: 0 frames queued (active: NO)
[Parsed_mswitch_0 @ 0x13a80cbe0] [MSwitch] Buffer status (frame 190):
[Parsed_mswitch_0 @ 0x13a80cbe0]   Input 0: 0 frames queued (active: YES)
[Parsed_mswitch_0 @ 0x13a80cbe0]   Input 1: 0 frames queued (active: NO)
[Parsed_mswitch_0 @ 0x13a80cbe0]   Input 2: 0 frames queued (active: NO)
[Parsed_mswitch_0 @ 0x13a80cbe0] [MSwitch] Buffer status (frame 200):
[Parsed_mswitch_0 @ 0x13a80cbe0]   Input 0: 0 frames queued (active: YES)
[Parsed_mswitch_0 @ 0x13a80cbe0]   Input 1: 0 frames queued (active: NO)
[Parsed_mswitch_0 @ 0x13a80cbe0]   Input 2: 0 frames queued (active: NO)
[Parsed_mswitch_0 @ 0x13a80cbe0] [MSwitch] Buffer status (frame 210):
[Parsed_mswitch_0 @ 0x13a80cbe0]   Input 0: 0 frames queued (active: YES)
[Parsed_mswitch_0 @ 0x13a80cbe0]   Input 1: 0 frames queued (active: NO)
[Parsed_mswitch_0 @ 0x13a80cbe0]   Input 2: 0 frames queued (active: NO)
[Parsed_mswitch_0 @ 0x13a80cbe0] [MSwitch] Buffer status (frame 220):
[Parsed_mswitch_0 @ 0x13a80cbe0]   Input 0: 0 frames queued (active: YES)
[Parsed_mswitch_0 @ 0x13a80cbe0]   Input 1: 0 frames queued (active: NO)
[Parsed_mswitch_0 @ 0x13a80cbe0]   Input 2: 0 frames queued (active: NO)
[Parsed_mswitch_0 @ 0x13a80cbe0] [MSwitch] Buffer status (frame 230):
[Parsed_mswitch_0 @ 0x13a80cbe0]   Input 0: 0 frames queued (active: YES)
[Parsed_mswitch_0 @ 0x13a80cbe0]   Input 1: 0 frames queued (active: NO)
[Parsed_mswitch_0 @ 0x13a80cbe0]   Input 2: 0 frames queued (active: NO)
[Parsed_mswitch_0 @ 0x13a80cbe0] [MSwitch] Buffer status (frame 240):
[Parsed_mswitch_0 @ 0x13a80cbe0]   Input 0: 0 frames queued (active: YES)
[Parsed_mswitch_0 @ 0x13a80cbe0]   Input 1: 0 frames queued (active: NO)
[Parsed_mswitch_0 @ 0x13a80cbe0]   Input 2: 0 frames queued (active: NO)
[Parsed_mswitch_0 @ 0x13a80cbe0] [MSwitch] Buffer status (frame 250):
[Parsed_mswitch_0 @ 0x13a80cbe0]   Input 0: 0 frames queued (active: YES)
[Parsed_mswitch_0 @ 0x13a80cbe0]   Input 1: 0 frames queued (active: NO)
[Parsed_mswitch_0 @ 0x13a80cbe0]   Input 2: 0 frames queued (active: NO)
[Parsed_mswitch_0 @ 0x13a80cbe0] [MSwitch] Buffer status (frame 260):
[Parsed_mswitch_0 @ 0x13a80cbe0]   Input 0: 0 frames queued (active: YES)
[Parsed_mswitch_0 @ 0x13a80cbe0]   Input 1: 0 frames queued (active: NO)
[Parsed_mswitch_0 @ 0x13a80cbe0]   Input 2: 0 frames queued (active: NO)
[Parsed_mswitch_0 @ 0x13a80cbe0] [MSwitch] Buffer status (frame 270):
[Parsed_mswitch_0 @ 0x13a80cbe0]   Input 0: 0 frames queued (active: YES)
[Parsed_mswitch_0 @ 0x13a80cbe0]   Input 1: 0 frames queued (active: NO)
[Parsed_mswitch_0 @ 0x13a80cbe0]   Input 2: 0 frames queued (active: NO)
[Parsed_mswitch_0 @ 0x13a80cbe0] [MSwitch] Buffer status (frame 280):
[Parsed_mswitch_0 @ 0x13a80cbe0]   Input 0: 0 frames queued (active: YES)
[Parsed_mswitch_0 @ 0x13a80cbe0]   Input 1: 0 frames queued (active: NO)
[Parsed_mswitch_0 @ 0x13a80cbe0]   Input 2: 0 frames queued (active: NO)
[Parsed_mswitch_0 @ 0x13a80cbe0] [MSwitch] Buffer status (frame 290):
[Parsed_mswitch_0 @ 0x13a80cbe0]   Input 0: 0 frames queued (active: YES)
[Parsed_mswitch_0 @ 0x13a80cbe0]   Input 1: 0 frames queued (active: NO)
[Parsed_mswitch_0 @ 0x13a80cbe0]   Input 2: 0 frames queued (active: NO)
[Parsed_mswitch_0 @ 0x13a80cbe0] [MSwitch] Buffer status (frame 300):
[Parsed_mswitch_0 @ 0x13a80cbe0]   Input 0: 0 frames queued (active: YES)
[Parsed_mswitch_0 @ 0x13a80cbe0]   Input 1: 0 frames queued (active: NO)
[Parsed_mswitch_0 @ 0x13a80cbe0]   Input 2: 0 frames queued (active: NO)
[Parsed_mswitch_0 @ 0x13a80cbe0] [MSwitch] Buffer status (frame 310):
[Parsed_mswitch_0 @ 0x13a80cbe0]   Input 0: 0 frames queued (active: YES)
[Parsed_mswitch_0 @ 0x13a80cbe0]   Input 1: 0 frames queued (active: NO)
[Parsed_mswitch_0 @ 0x13a80cbe0]   Input 2: 0 frames queued (active: NO)
[Parsed_mswitch_0 @ 0x13a80cbe0] [MSwitch] Buffer status (frame 320):
[Parsed_mswitch_0 @ 0x13a80cbe0]   Input 0: 0 frames queued (active: YES)
[Parsed_mswitch_0 @ 0x13a80cbe0]   Input 1: 0 frames queued (active: NO)
[Parsed_mswitch_0 @ 0x13a80cbe0]   Input 2: 0 frames queued (active: NO)
[Parsed_mswitch_0 @ 0x13a80cbe0] [MSwitch] Buffer status (frame 330):
[Parsed_mswitch_0 @ 0x13a80cbe0]   Input 0: 0 frames queued (active: YES)
[Parsed_mswitch_0 @ 0x13a80cbe0]   Input 1: 0 frames queued (active: NO)
[Parsed_mswitch_0 @ 0x13a80cbe0]   Input 2: 0 frames queued (active: NO)
[Parsed_mswitch_0 @ 0x13a80cbe0] [MSwitch] Buffer status (frame 340):
[Parsed_mswitch_0 @ 0x13a80cbe0]   Input 0: 0 frames queued (active: YES)
[Parsed_mswitch_0 @ 0x13a80cbe0]   Input 1: 0 frames queued (active: NO)
[Parsed_mswitch_0 @ 0x13a80cbe0]   Input 2: 0 frames queued (active: NO)
[Parsed_mswitch_0 @ 0x13a80cbe0] [MSwitch] Buffer status (frame 350):
[Parsed_mswitch_0 @ 0x13a80cbe0]   Input 0: 0 frames queued (active: YES)
[Parsed_mswitch_0 @ 0x13a80cbe0]   Input 1: 0 frames queued (active: NO)
[Parsed_mswitch_0 @ 0x13a80cbe0]   Input 2: 0 frames queued (active: NO)
[Parsed_mswitch_0 @ 0x13a80cbe0] [MSwitch] Buffer status (frame 360):
[Parsed_mswitch_0 @ 0x13a80cbe0]   Input 0: 0 frames queued (active: YES)
[Parsed_mswitch_0 @ 0x13a80cbe0]   Input 1: 0 frames queued (active: NO)
[Parsed_mswitch_0 @ 0x13a80cbe0]   Input 2: 0 frames queued (active: NO)
[Parsed_mswitch_0 @ 0x13a80cbe0] [MSwitch] Buffer status (frame 370):
[Parsed_mswitch_0 @ 0x13a80cbe0]   Input 0: 0 frames queued (active: YES)
[Parsed_mswitch_0 @ 0x13a80cbe0]   Input 1: 0 frames queued (active: NO)
[Parsed_mswitch_0 @ 0x13a80cbe0]   Input 2: 0 frames queued (active: NO)
[Parsed_mswitch_0 @ 0x13a80cbe0] [MSwitch] Buffer status (frame 380):
[Parsed_mswitch_0 @ 0x13a80cbe0]   Input 0: 0 frames queued (active: YES)
[Parsed_mswitch_0 @ 0x13a80cbe0]   Input 1: 0 frames queued (active: NO)
[Parsed_mswitch_0 @ 0x13a80cbe0]   Input 2: 0 frames queued (active: NO)
[Parsed_mswitch_0 @ 0x13a80cbe0] [MSwitch] Buffer status (frame 390):
[Parsed_mswitch_0 @ 0x13a80cbe0]   Input 0: 0 frames queued (active: YES)
[Parsed_mswitch_0 @ 0x13a80cbe0]   Input 1: 0 frames queued (active: NO)
[Parsed_mswitch_0 @ 0x13a80cbe0]   Input 2: 0 frames queued (active: NO)
[Parsed_mswitch_0 @ 0x13a80cbe0] [MSwitch] Buffer status (frame 400):
[Parsed_mswitch_0 @ 0x13a80cbe0]   Input 0: 0 frames queued (active: YES)
[Parsed_mswitch_0 @ 0x13a80cbe0]   Input 1: 0 frames queued (active: NO)
[Parsed_mswitch_0 @ 0x13a80cbe0]   Input 2: 0 frames queued (active: NO)
[Parsed_mswitch_0 @ 0x13a80cbe0] [MSwitch] Buffer status (frame 410):
[Parsed_mswitch_0 @ 0x13a80cbe0]   Input 0: 0 frames queued (active: YES)
[Parsed_mswitch_0 @ 0x13a80cbe0]   Input 1: 0 frames queued (active: NO)
[Parsed_mswitch_0 @ 0x13a80cbe0]   Input 2: 0 frames queued (active: NO)
[Parsed_mswitch_0 @ 0x13a80cbe0] [MSwitch] Buffer status (frame 420):
[Parsed_mswitch_0 @ 0x13a80cbe0]   Input 0: 0 frames queued (active: YES)
[Parsed_mswitch_0 @ 0x13a80cbe0]   Input 1: 0 frames queued (active: NO)
[Parsed_mswitch_0 @ 0x13a80cbe0]   Input 2: 0 frames queued (active: NO)
[Parsed_mswitch_0 @ 0x13a80cbe0] [MSwitch] Buffer status (frame 430):
[Parsed_mswitch_0 @ 0x13a80cbe0]   Input 0: 0 frames queued (active: YES)
[Parsed_mswitch_0 @ 0x13a80cbe0]   Input 1: 0 frames queued (active: NO)
[Parsed_mswitch_0 @ 0x13a80cbe0]   Input 2: 0 frames queued (active: NO)
[Parsed_mswitch_0 @ 0x13a80cbe0] [MSwitch] Buffer status (frame 440):
[Parsed_mswitch_0 @ 0x13a80cbe0]   Input 0: 0 frames queued (active: YES)
[Parsed_mswitch_0 @ 0x13a80cbe0]   Input 1: 0 frames queued (active: NO)
[Parsed_mswitch_0 @ 0x13a80cbe0]   Input 2: 0 frames queued (active: NO)
[Parsed_mswitch_0 @ 0x13a80cbe0] [MSwitch] Buffer status (frame 450):
[Parsed_mswitch_0 @ 0x13a80cbe0]   Input 0: 0 frames queued (active: YES)
[Parsed_mswitch_0 @ 0x13a80cbe0]   Input 1: 0 frames queued (active: NO)
[Parsed_mswitch_0 @ 0x13a80cbe0]   Input 2: 0 frames queued (active: NO)
[Parsed_mswitch_0 @ 0x13a80cbe0] [MSwitch] Buffer status (frame 460):
[Parsed_mswitch_0 @ 0x13a80cbe0]   Input 0: 0 frames queued (active: YES)
[Parsed_mswitch_0 @ 0x13a80cbe0]   Input 1: 0 frames queued (active: NO)
[Parsed_mswitch_0 @ 0x13a80cbe0]   Input 2: 0 frames queued (active: NO)
[Parsed_mswitch_0 @ 0x13a80cbe0] [MSwitch] Buffer status (frame 470):
[Parsed_mswitch_0 @ 0x13a80cbe0]   Input 0: 0 frames queued (active: YES)
[Parsed_mswitch_0 @ 0x13a80cbe0]   Input 1: 0 frames queued (active: NO)
[Parsed_mswitch_0 @ 0x13a80cbe0]   Input 2: 0 frames queued (active: NO)
[Parsed_mswitch_0 @ 0x13a80cbe0] [MSwitch] Buffer status (frame 480):
[Parsed_mswitch_0 @ 0x13a80cbe0]   Input 0: 0 frames queued (active: YES)
[Parsed_mswitch_0 @ 0x13a80cbe0]   Input 1: 0 frames queued (active: NO)
[Parsed_mswitch_0 @ 0x13a80cbe0]   Input 2: 0 frames queued (active: NO)
[Parsed_mswitch_0 @ 0x13a80cbe0] [MSwitch] Buffer status (frame 490):
[Parsed_mswitch_0 @ 0x13a80cbe0]   Input 0: 0 frames queued (active: YES)
[Parsed_mswitch_0 @ 0x13a80cbe0]   Input 1: 0 frames queued (active: NO)
[Parsed_mswitch_0 @ 0x13a80cbe0]   Input 2: 0 frames queued (active: NO)
[Parsed_mswitch_0 @ 0x13a80cbe0] [MSwitch] Buffer status (frame 500):
[Parsed_mswitch_0 @ 0x13a80cbe0]   Input 0: 0 frames queued (active: YES)
[Parsed_mswitch_0 @ 0x13a80cbe0]   Input 1: 0 frames queued (active: NO)
[Parsed_mswitch_0 @ 0x13a80cbe0]   Input 2: 0 frames queued (active: NO)
[Parsed_mswitch_0 @ 0x13a80cbe0] [MSwitch] Buffer status (frame 510):
[Parsed_mswitch_0 @ 0x13a80cbe0]   Input 0: 0 frames queued (active: YES)
[Parsed_mswitch_0 @ 0x13a80cbe0]   Input 1: 0 frames queued (active: NO)
[Parsed_mswitch_0 @ 0x13a80cbe0]   Input 2: 0 frames queued (active: NO)
[BUFFER_TRACK] FFmpeg - Phase: startup, time: 1759556029633ms, active: 0
frame=  545 fps=0.0 q=17.0 size=    1280KiB time=00:00:18.16 bitrate= 577.2kbits/s dup=46 drop=0 speed=36.1x elapsed=0:00:00.50    [Parsed_mswitch_0 @ 0x13a80cbe0] [MSwitch] Buffer status (frame 520):
[Parsed_mswitch_0 @ 0x13a80cbe0]   Input 0: 0 frames queued (active: YES)
[Parsed_mswitch_0 @ 0x13a80cbe0]   Input 1: 0 frames queued (active: NO)
[Parsed_mswitch_0 @ 0x13a80cbe0]   Input 2: 0 frames queued (active: NO)
frame=  560 fps=558 q=17.0 size=    1536KiB time=00:00:18.66 bitrate= 674.1kbits/s dup=46 drop=0 speed=18.6x elapsed=0:00:01.00    [MSwitch] [Webhook] Received request, bytes_read=86
[MSwitch] [Webhook] Raw request:
POST /switch/1 HTTP/1.1
Host: localhost:8099
User-Agent: curl/8.7.1
Accept: */*


[MSwitch] [Webhook] POST /switch detected
[MSwitch] [Webhook] Parsing source ID from URL path
[MSwitch] [Webhook] Extracted source ID from URL: '1'
[MSwitch] [Webhook] *** ENQUEUING SWITCH TO SOURCE: 1 ***
[MSwitch] Command enqueued: 1
[Parsed_mswitch_0 @ 0x13a80cbe0] [MSwitch] Buffer status (frame 530):
[Parsed_mswitch_0 @ 0x13a80cbe0]   Input 0: 0 frames queued (active: YES)
[Parsed_mswitch_0 @ 0x13a80cbe0]   Input 1: 0 frames queued (active: NO)
[Parsed_mswitch_0 @ 0x13a80cbe0]   Input 2: 0 frames queued (active: NO)
[Parsed_mswitch_0 @ 0x13a80cbe0] [MSwitch] Buffer status (frame 540):
[Parsed_mswitch_0 @ 0x13a80cbe0]   Input 0: 0 frames queued (active: YES)
[Parsed_mswitch_0 @ 0x13a80cbe0]   Input 1: 0 frames queued (active: NO)
[Parsed_mswitch_0 @ 0x13a80cbe0]   Input 2: 0 frames queued (active: NO)
[MSwitch] [MSwitch] *** PROCESSING COMMAND: 1 ***
[MSwitch] Parsed numeric index: 1
[MSwitch] Switch request: target=1 (1), current=0
[MSwitch] Switching from source 0 to source 1 (1)
[MSwitch] Performing graceful switch to source 1
[MSwitch] >>> mswitch_update_filter_map called: target_index=1, streamselect=0x13a80cbe0
[MSwitch] streamselect filter name: mswitch
[MSwitch] Calling avfilter_process_command with map_str='1'
[Parsed_mswitch_0 @ 0x13a80cbe0] [MSwitch Filter] Received command: map = 1 (current active=0)
[Parsed_mswitch_0 @ 0x13a80cbe0] [MSwitch Filter] ✅ Switched from input 0 to input 1
[MSwitch] avfilter_process_command returned: 0 (success), response='1'
[MSwitch] ✓ avfilter_process_command succeeded for map=1
[MSwitch] [MSwitch] *** SUCCESSFULLY PROCESSED COMMAND: 1 ***
frame=  575 fps=381 q=17.0 size=    1536KiB time=00:00:19.16 bitrate= 656.5kbits/s dup=46 drop=0 speed=12.7x elapsed=0:00:01.50    [Parsed_mswitch_0 @ 0x13a80cbe0] [MSwitch Filter] ⚡ Switched from input 0 to input 1
frame=  575 fps=285 q=17.0 size=    1536KiB time=00:00:19.16 bitrate= 656.5kbits/s dup=46 drop=0 speed=9.51x elapsed=0:00:02.01    [BUFFER_TRACK] FFmpeg - Phase: startup, time: 1759556031649ms, active: 1
frame=  575 fps=228 q=17.0 size=    1536KiB time=00:00:19.16 bitrate= 656.5kbits/s dup=46 drop=0 speed=7.61x elapsed=0:00:02.51    frame=  575 fps=190 q=17.0 size=    1536KiB time=00:00:19.16 bitrate= 656.5kbits/s dup=46 drop=0 speed=6.34x elapsed=0:00:03.02    frame=  575 fps=163 q=17.0 size=    1536KiB time=00:00:19.16 bitrate= 656.5kbits/s dup=46 drop=0 speed=5.44x elapsed=0:00:03.52    frame=  575 fps=143 q=17.0 size=    1536KiB time=00:00:19.16 bitrate= 656.5kbits/s dup=46 drop=0 speed=4.76x elapsed=0:00:04.02    [BUFFER_TRACK] FFmpeg - Phase: startup, time: 1759556033663ms, active: 1
frame=  575 fps=127 q=17.0 size=    1536KiB time=00:00:19.16 bitrate= 656.5kbits/s dup=46 drop=0 speed=4.23x elapsed=0:00:04.53    frame=  575 fps=114 q=17.0 size=    1536KiB time=00:00:19.16 bitrate= 656.5kbits/s dup=46 drop=0 speed= 3.8x elapsed=0:00:05.03    frame=  575 fps=104 q=17.0 size=    1536KiB time=00:00:19.16 bitrate= 656.5kbits/s dup=46 drop=0 speed=3.46x elapsed=0:00:05.54    frame=  575 fps= 95 q=17.0 size=    1536KiB time=00:00:19.16 bitrate= 656.5kbits/s dup=46 drop=0 speed=3.17x elapsed=0:00:06.04    [BUFFER_TRACK] FFmpeg - Phase: startup, time: 1759556035674ms, active: 1
frame=  575 fps= 88 q=17.0 size=    1536KiB time=00:00:19.16 bitrate= 656.5kbits/s dup=46 drop=0 speed=2.93x elapsed=0:00:06.54    frame=  575 fps= 82 q=17.0 size=    1536KiB time=00:00:19.16 bitrate= 656.5kbits/s dup=46 drop=0 speed=2.72x elapsed=0:00:07.05    frame=  575 fps= 76 q=17.0 size=    1536KiB time=00:00:19.16 bitrate= 656.5kbits/s dup=46 drop=0 speed=2.54x elapsed=0:00:07.55    frame=  575 fps= 71 q=17.0 size=    1536KiB time=00:00:19.16 bitrate= 656.5kbits/s dup=46 drop=0 speed=2.38x elapsed=0:00:08.05    [BUFFER_TRACK] FFmpeg - Phase: startup, time: 1759556037692ms, active: 1
frame=  575 fps= 67 q=17.0 size=    1536KiB time=00:00:19.16 bitrate= 656.5kbits/s dup=46 drop=0 speed=2.24x elapsed=0:00:08.56    [MSwitch] [Webhook] Received request, bytes_read=86
[MSwitch] [Webhook] Raw request:
POST /switch/2 HTTP/1.1
Host: localhost:8099
User-Agent: curl/8.7.1
Accept: */*


[MSwitch] [Webhook] POST /switch detected
[MSwitch] [Webhook] Parsing source ID from URL path
[MSwitch] [Webhook] Extracted source ID from URL: '2'
[MSwitch] [Webhook] *** ENQUEUING SWITCH TO SOURCE: 2 ***
[MSwitch] Command enqueued: 2
[MSwitch] [MSwitch] *** PROCESSING COMMAND: 2 ***
[MSwitch] Parsed numeric index: 2
[MSwitch] Switch request: target=2 (2), current=1
[MSwitch] Switching from source 1 to source 2 (2)
[MSwitch] Performing graceful switch to source 2
[MSwitch] >>> mswitch_update_filter_map called: target_index=2, streamselect=0x13a80cbe0
[MSwitch] streamselect filter name: mswitch
[MSwitch] Calling avfilter_process_command with map_str='2'
[Parsed_mswitch_0 @ 0x13a80cbe0] [MSwitch Filter] Received command: map = 2 (current active=1)
[Parsed_mswitch_0 @ 0x13a80cbe0] [MSwitch Filter] ✅ Switched from input 1 to input 2
[MSwitch] avfilter_process_command returned: 0 (success), response='2'
[MSwitch] ✓ avfilter_process_command succeeded for map=2
[MSwitch] [MSwitch] *** SUCCESSFULLY PROCESSED COMMAND: 2 ***
frame=  575 fps= 63 q=17.0 size=    1536KiB time=00:00:19.16 bitrate= 656.5kbits/s dup=46 drop=0 speed=2.11x elapsed=0:00:09.06    [Parsed_mswitch_0 @ 0x13a80cbe0] [MSwitch Filter] ⚡ Switched from input 1 to input 2
frame=  575 fps= 60 q=17.0 size=    1536KiB time=00:00:19.16 bitrate= 656.5kbits/s dup=46 drop=0 speed=   2x elapsed=0:00:09.57    frame=  575 fps= 57 q=17.0 size=    1536KiB time=00:00:19.16 bitrate= 656.5kbits/s dup=46 drop=0 speed= 1.9x elapsed=0:00:10.07    [BUFFER_TRACK] FFmpeg - Phase: startup, time: 1759556039709ms, active: 2
frame=  575 fps= 54 q=17.0 size=    1536KiB time=00:00:19.16 bitrate= 656.5kbits/s dup=46 drop=0 speed=1.81x elapsed=0:00:10.57    frame=  575 fps= 52 q=17.0 size=    1536KiB time=00:00:19.16 bitrate= 656.5kbits/s dup=46 drop=0 speed=1.73x elapsed=0:00:11.08    frame=  575 fps= 50 q=17.0 size=    1536KiB time=00:00:19.16 bitrate= 656.5kbits/s dup=46 drop=0 speed=1.65x elapsed=0:00:11.58    frame=  575 fps= 48 q=17.0 size=    1536KiB time=00:00:19.16 bitrate= 656.5kbits/s dup=46 drop=0 speed=1.58x elapsed=0:00:12.09    [BUFFER_TRACK] FFmpeg - Phase: startup, time: 1759556041728ms, active: 2
frame=  575 fps= 46 q=17.0 size=    1536KiB time=00:00:19.16 bitrate= 656.5kbits/s dup=46 drop=0 speed=1.52x elapsed=0:00:12.59    frame=  575 fps= 44 q=17.0 size=    1536KiB time=00:00:19.16 bitrate= 656.5kbits/s dup=46 drop=0 speed=1.46x elapsed=0:00:13.10    frame=  575 fps= 42 q=17.0 size=    1536KiB time=00:00:19.16 bitrate= 656.5kbits/s dup=46 drop=0 speed=1.41x elapsed=0:00:13.60    frame=  575 fps= 41 q=17.0 size=    1536KiB time=00:00:19.16 bitrate= 656.5kbits/s dup=46 drop=0 speed=1.36x elapsed=0:00:14.10    [BUFFER_TRACK] FFmpeg - Phase: startup, time: 1759556043739ms, active: 2
frame=  575 fps= 39 q=17.0 size=    1536KiB time=00:00:19.16 bitrate= 656.5kbits/s dup=46 drop=0 speed=1.31x elapsed=0:00:14.60    frame=  575 fps= 38 q=17.0 size=    1536KiB time=00:00:19.16 bitrate= 656.5kbits/s dup=46 drop=0 speed=1.27x elapsed=0:00:15.11    frame=  575 fps= 37 q=17.0 size=    1536KiB time=00:00:19.16 bitrate= 656.5kbits/s dup=46 drop=0 speed=1.23x elapsed=0:00:15.61    frame=  575 fps= 36 q=17.0 size=    1536KiB time=00:00:19.16 bitrate= 656.5kbits/s dup=46 drop=0 speed=1.19x elapsed=0:00:16.11    [BUFFER_TRACK] FFmpeg - Phase: startup, time: 1759556045751ms, active: 2
frame=  575 fps= 35 q=17.0 size=    1536KiB time=00:00:19.16 bitrate= 656.5kbits/s dup=46 drop=0 speed=1.15x elapsed=0:00:16.62    [MSwitch] [Webhook] Received request, bytes_read=86
[MSwitch] [Webhook] Raw request:
POST /switch/0 HTTP/1.1
Host: localhost:8099
User-Agent: curl/8.7.1
Accept: */*


[MSwitch] [Webhook] POST /switch detected
[MSwitch] [Webhook] Parsing source ID from URL path
[MSwitch] [Webhook] Extracted source ID from URL: '0'
[MSwitch] [Webhook] *** ENQUEUING SWITCH TO SOURCE: 0 ***
[MSwitch] Command enqueued: 0
[MSwitch] [MSwitch] *** PROCESSING COMMAND: 0 ***
[MSwitch] Parsed numeric index: 0
[MSwitch] Switch request: target=0 (0), current=2
[MSwitch] Switching from source 2 to source 0 (0)
[MSwitch] Performing graceful switch to source 0
[MSwitch] >>> mswitch_update_filter_map called: target_index=0, streamselect=0x13a80cbe0
[MSwitch] streamselect filter name: mswitch
[MSwitch] Calling avfilter_process_command with map_str='0'
[Parsed_mswitch_0 @ 0x13a80cbe0] [MSwitch Filter] Received command: map = 0 (current active=2)
[Parsed_mswitch_0 @ 0x13a80cbe0] [MSwitch Filter] ✅ Switched from input 2 to input 0
[MSwitch] avfilter_process_command returned: 0 (success), response='0'
[MSwitch] ✓ avfilter_process_command succeeded for map=0
[MSwitch] [MSwitch] *** SUCCESSFULLY PROCESSED COMMAND: 0 ***
frame=  575 fps= 34 q=17.0 size=    1536KiB time=00:00:19.16 bitrate= 656.5kbits/s dup=46 drop=0 speed=1.12x elapsed=0:00:17.12    [Parsed_mswitch_0 @ 0x13a80cbe0] [MSwitch Filter] ⚡ Switched from input 2 to input 0
[Parsed_mswitch_0 @ 0x13a80cbe0] [MSwitch] Buffer status (frame 550):
[Parsed_mswitch_0 @ 0x13a80cbe0]   Input 0: 0 frames queued (active: YES)
[Parsed_mswitch_0 @ 0x13a80cbe0]   Input 1: 0 frames queued (active: NO)
[Parsed_mswitch_0 @ 0x13a80cbe0]   Input 2: 0 frames queued (active: NO)
frame= 1059 fps= 60 q=16.0 size=    1792KiB time=00:00:35.30 bitrate= 415.9kbits/s dup=46 drop=0 speed=   2x elapsed=0:00:17.62    [Parsed_mswitch_0 @ 0x13a80cbe0] [MSwitch] Buffer status (frame 560):
[Parsed_mswitch_0 @ 0x13a80cbe0]   Input 0: 0 frames queued (active: YES)
[Parsed_mswitch_0 @ 0x13a80cbe0]   Input 1: 0 frames queued (active: NO)
[Parsed_mswitch_0 @ 0x13a80cbe0]   Input 2: 0 frames queued (active: NO)
[Parsed_mswitch_0 @ 0x13a80cbe0] [MSwitch] Buffer status (frame 570):
[Parsed_mswitch_0 @ 0x13a80cbe0]   Input 0: 0 frames queued (active: YES)
[Parsed_mswitch_0 @ 0x13a80cbe0]   Input 1: 0 frames queued (active: NO)
[Parsed_mswitch_0 @ 0x13a80cbe0]   Input 2: 0 frames queued (active: NO)
frame= 1074 fps= 59 q=17.0 size=    2048KiB time=00:00:35.80 bitrate= 468.6kbits/s dup=46 drop=0 speed=1.97x elapsed=0:00:18.13    [Parsed_mswitch_0 @ 0x13a80cbe0] [MSwitch] Buffer status (frame 580):
[Parsed_mswitch_0 @ 0x13a80cbe0]   Input 0: 0 frames queued (active: YES)
[Parsed_mswitch_0 @ 0x13a80cbe0]   Input 1: 0 frames queued (active: NO)
[Parsed_mswitch_0 @ 0x13a80cbe0]   Input 2: 0 frames queued (active: NO)
[BUFFER_TRACK] FFmpeg - Phase: startup, time: 1759556047768ms, active: 0
frame= 1089 fps= 58 q=16.0 size=    2048KiB time=00:00:36.30 bitrate= 462.2kbits/s dup=46 drop=0 speed=1.95x elapsed=0:00:18.63    [Parsed_mswitch_0 @ 0x13a80cbe0] [MSwitch] Buffer status (frame 590):
[Parsed_mswitch_0 @ 0x13a80cbe0]   Input 0: 0 frames queued (active: YES)
[Parsed_mswitch_0 @ 0x13a80cbe0]   Input 1: 0 frames queued (active: NO)
[Parsed_mswitch_0 @ 0x13a80cbe0]   Input 2: 0 frames queued (active: NO)
[Parsed_mswitch_0 @ 0x13a80cbe0] [MSwitch] Buffer status (frame 600):
[Parsed_mswitch_0 @ 0x13a80cbe0]   Input 0: 0 frames queued (active: YES)
[Parsed_mswitch_0 @ 0x13a80cbe0]   Input 1: 0 frames queued (active: NO)
[Parsed_mswitch_0 @ 0x13a80cbe0]   Input 2: 0 frames queued (active: NO)
frame= 1105 fps= 58 q=17.0 size=    2048KiB time=00:00:36.83 bitrate= 455.5kbits/s dup=46 drop=0 speed=1.92x elapsed=0:00:19.14    [Parsed_mswitch_0 @ 0x13a80cbe0] [MSwitch] Buffer status (frame 610):
[Parsed_mswitch_0 @ 0x13a80cbe0]   Input 0: 0 frames queued (active: YES)
[Parsed_mswitch_0 @ 0x13a80cbe0]   Input 1: 0 frames queued (active: NO)
[Parsed_mswitch_0 @ 0x13a80cbe0]   Input 2: 0 frames queued (active: NO)
frame= 1120 fps= 57 q=17.0 size=    2048KiB time=00:00:37.33 bitrate= 449.4kbits/s dup=46 drop=0 speed= 1.9x elapsed=0:00:19.64    [Parsed_mswitch_0 @ 0x13a80cbe0] [MSwitch] Buffer status (frame 620):
[Parsed_mswitch_0 @ 0x13a80cbe0]   Input 0: 0 frames queued (active: YES)
[Parsed_mswitch_0 @ 0x13a80cbe0]   Input 1: 0 frames queued (active: NO)
[Parsed_mswitch_0 @ 0x13a80cbe0]   Input 2: 0 frames queued (active: NO)
[Parsed_mswitch_0 @ 0x13a80cbe0] [MSwitch] Buffer status (frame 630):
[Parsed_mswitch_0 @ 0x13a80cbe0]   Input 0: 0 frames queued (active: YES)
[Parsed_mswitch_0 @ 0x13a80cbe0]   Input 1: 0 frames queued (active: NO)
[Parsed_mswitch_0 @ 0x13a80cbe0]   Input 2: 0 frames queued (active: NO)
frame= 1135 fps= 56 q=18.0 size=    2048KiB time=00:00:37.83 bitrate= 443.5kbits/s dup=46 drop=0 speed=1.88x elapsed=0:00:20.15    [Parsed_mswitch_0 @ 0x13a80cbe0] [MSwitch] Buffer status (frame 640):
[Parsed_mswitch_0 @ 0x13a80cbe0]   Input 0: 0 frames queued (active: YES)
[Parsed_mswitch_0 @ 0x13a80cbe0]   Input 1: 0 frames queued (active: NO)
[Parsed_mswitch_0 @ 0x13a80cbe0]   Input 2: 0 frames queued (active: NO)
[BUFFER_TRACK] FFmpeg - Phase: startup, time: 1759556049789ms, active: 0
frame= 1150 fps= 56 q=17.0 size=    2304KiB time=00:00:38.33 bitrate= 492.4kbits/s dup=46 drop=0 speed=1.86x elapsed=0:00:20.65    [Parsed_mswitch_0 @ 0x13a80cbe0] [MSwitch] Buffer status (frame 650):
[Parsed_mswitch_0 @ 0x13a80cbe0]   Input 0: 0 frames queued (active: YES)
[Parsed_mswitch_0 @ 0x13a80cbe0]   Input 1: 0 frames queued (active: NO)
[Parsed_mswitch_0 @ 0x13a80cbe0]   Input 2: 0 frames queued (active: NO)
[Parsed_mswitch_0 @ 0x13a80cbe0] [MSwitch] Buffer status (frame 660):
[Parsed_mswitch_0 @ 0x13a80cbe0]   Input 0: 0 frames queued (active: YES)
[Parsed_mswitch_0 @ 0x13a80cbe0]   Input 1: 0 frames queued (active: NO)
[Parsed_mswitch_0 @ 0x13a80cbe0]   Input 2: 0 frames queued (active: NO)
frame= 1165 fps= 55 q=17.0 size=    2304KiB time=00:00:38.83 bitrate= 486.0kbits/s dup=46 drop=0 speed=1.84x elapsed=0:00:21.16    [Parsed_mswitch_0 @ 0x13a80cbe0] [MSwitch] Buffer status (frame 670):
[Parsed_mswitch_0 @ 0x13a80cbe0]   Input 0: 0 frames queued (active: YES)
[Parsed_mswitch_0 @ 0x13a80cbe0]   Input 1: 0 frames queued (active: NO)
[Parsed_mswitch_0 @ 0x13a80cbe0]   Input 2: 0 frames queued (active: NO)
frame= 1180 fps= 54 q=17.0 size=    2304KiB time=00:00:39.33 bitrate= 479.9kbits/s dup=46 drop=0 speed=1.82x elapsed=0:00:21.66    [Parsed_mswitch_0 @ 0x13a80cbe0] [MSwitch] Buffer status (frame 680):
[Parsed_mswitch_0 @ 0x13a80cbe0]   Input 0: 0 frames queued (active: YES)
[Parsed_mswitch_0 @ 0x13a80cbe0]   Input 1: 0 frames queued (active: NO)
[Parsed_mswitch_0 @ 0x13a80cbe0]   Input 2: 0 frames queued (active: NO)
[Parsed_mswitch_0 @ 0x13a80cbe0] [MSwitch] Buffer status (frame 690):
[Parsed_mswitch_0 @ 0x13a80cbe0]   Input 0: 0 frames queued (active: YES)
[Parsed_mswitch_0 @ 0x13a80cbe0]   Input 1: 0 frames queued (active: NO)
[Parsed_mswitch_0 @ 0x13a80cbe0]   Input 2: 0 frames queued (active: NO)
frame= 1195 fps= 54 q=18.0 size=    2304KiB time=00:00:39.83 bitrate= 473.8kbits/s dup=46 drop=0 speed= 1.8x elapsed=0:00:22.17    [Parsed_mswitch_0 @ 0x13a80cbe0] [MSwitch] Buffer status (frame 700):
[Parsed_mswitch_0 @ 0x13a80cbe0]   Input 0: 0 frames queued (active: YES)
[Parsed_mswitch_0 @ 0x13a80cbe0]   Input 1: 0 frames queued (active: NO)
[Parsed_mswitch_0 @ 0x13a80cbe0]   Input 2: 0 frames queued (active: NO)
[BUFFER_TRACK] FFmpeg - Phase: startup, time: 1759556051801ms, active: 0
frame= 1210 fps= 53 q=18.0 size=    2304KiB time=00:00:40.33 bitrate= 468.0kbits/s dup=46 drop=0 speed=1.78x elapsed=0:00:22.67    [Parsed_mswitch_0 @ 0x13a80cbe0] [MSwitch] Buffer status (frame 710):
[Parsed_mswitch_0 @ 0x13a80cbe0]   Input 0: 0 frames queued (active: YES)
[Parsed_mswitch_0 @ 0x13a80cbe0]   Input 1: 0 frames queued (active: NO)
[Parsed_mswitch_0 @ 0x13a80cbe0]   Input 2: 0 frames queued (active: NO)
[Parsed_mswitch_0 @ 0x13a80cbe0] [MSwitch] Buffer status (frame 720):
[Parsed_mswitch_0 @ 0x13a80cbe0]   Input 0: 0 frames queued (active: YES)
[Parsed_mswitch_0 @ 0x13a80cbe0]   Input 1: 0 frames queued (active: NO)
[Parsed_mswitch_0 @ 0x13a80cbe0]   Input 2: 0 frames queued (active: NO)
frame= 1226 fps= 53 q=17.0 size=    2304KiB time=00:00:40.86 bitrate= 461.9kbits/s dup=46 drop=0 speed=1.76x elapsed=0:00:23.17    [Parsed_mswitch_0 @ 0x13a80cbe0] [MSwitch] Buffer status (frame 730):
[Parsed_mswitch_0 @ 0x13a80cbe0]   Input 0: 0 frames queued (active: YES)
[Parsed_mswitch_0 @ 0x13a80cbe0]   Input 1: 0 frames queued (active: NO)
[Parsed_mswitch_0 @ 0x13a80cbe0]   Input 2: 0 frames queued (active: NO)
frame= 1241 fps= 52 q=17.0 size=    2560KiB time=00:00:41.36 bitrate= 507.0kbits/s dup=46 drop=0 speed=1.75x elapsed=0:00:23.68    [Parsed_mswitch_0 @ 0x13a80cbe0] [MSwitch] Buffer status (frame 740):
[Parsed_mswitch_0 @ 0x13a80cbe0]   Input 0: 0 frames queued (active: YES)
[Parsed_mswitch_0 @ 0x13a80cbe0]   Input 1: 0 frames queued (active: NO)
[Parsed_mswitch_0 @ 0x13a80cbe0]   Input 2: 0 frames queued (active: NO)
[Parsed_mswitch_0 @ 0x13a80cbe0] [MSwitch] Buffer status (frame 750):
[Parsed_mswitch_0 @ 0x13a80cbe0]   Input 0: 0 frames queued (active: YES)
[Parsed_mswitch_0 @ 0x13a80cbe0]   Input 1: 0 frames queued (active: NO)
[Parsed_mswitch_0 @ 0x13a80cbe0]   Input 2: 0 frames queued (active: NO)
frame= 1256 fps= 52 q=17.0 size=    2560KiB time=00:00:41.86 bitrate= 500.9kbits/s dup=46 drop=0 speed=1.73x elapsed=0:00:24.18    [Parsed_mswitch_0 @ 0x13a80cbe0] [MSwitch] Buffer status (frame 760):
[Parsed_mswitch_0 @ 0x13a80cbe0]   Input 0: 0 frames queued (active: YES)
[Parsed_mswitch_0 @ 0x13a80cbe0]   Input 1: 0 frames queued (active: NO)
[Parsed_mswitch_0 @ 0x13a80cbe0]   Input 2: 0 frames queued (active: NO)
[BUFFER_TRACK] FFmpeg - Phase: startup, time: 1759556053822ms, active: 0
frame= 1271 fps= 51 q=17.0 size=    2560KiB time=00:00:42.36 bitrate= 495.0kbits/s dup=46 drop=0 speed=1.72x elapsed=0:00:24.69    [Parsed_mswitch_0 @ 0x13a80cbe0] [MSwitch] Buffer status (frame 770):
[Parsed_mswitch_0 @ 0x13a80cbe0]   Input 0: 0 frames queued (active: YES)
[Parsed_mswitch_0 @ 0x13a80cbe0]   Input 1: 0 frames queued (active: NO)
[Parsed_mswitch_0 @ 0x13a80cbe0]   Input 2: 0 frames queued (active: NO)
[Parsed_mswitch_0 @ 0x13a80cbe0] [MSwitch] Buffer status (frame 780):
[Parsed_mswitch_0 @ 0x13a80cbe0]   Input 0: 0 frames queued (active: YES)
[Parsed_mswitch_0 @ 0x13a80cbe0]   Input 1: 0 frames queued (active: NO)
[Parsed_mswitch_0 @ 0x13a80cbe0]   Input 2: 0 frames queued (active: NO)
frame= 1286 fps= 51 q=17.0 size=    2560KiB time=00:00:42.86 bitrate= 489.2kbits/s dup=46 drop=0 speed= 1.7x elapsed=0:00:25.19    [Parsed_mswitch_0 @ 0x13a80cbe0] [MSwitch] Buffer status (frame 790):
[Parsed_mswitch_0 @ 0x13a80cbe0]   Input 0: 0 frames queued (active: YES)
[Parsed_mswitch_0 @ 0x13a80cbe0]   Input 1: 0 frames queued (active: NO)
[Parsed_mswitch_0 @ 0x13a80cbe0]   Input 2: 0 frames queued (active: NO)
frame= 1301 fps= 51 q=17.0 size=    2560KiB time=00:00:43.36 bitrate= 483.6kbits/s dup=46 drop=0 speed=1.69x elapsed=0:00:25.69    [Parsed_mswitch_0 @ 0x13a80cbe0] [MSwitch] Buffer status (frame 800):
[Parsed_mswitch_0 @ 0x13a80cbe0]   Input 0: 0 frames queued (active: YES)
[Parsed_mswitch_0 @ 0x13a80cbe0]   Input 1: 0 frames queued (active: NO)
[Parsed_mswitch_0 @ 0x13a80cbe0]   Input 2: 0 frames queued (active: NO)
[Parsed_mswitch_0 @ 0x13a80cbe0] [MSwitch] Buffer status (frame 810):
[Parsed_mswitch_0 @ 0x13a80cbe0]   Input 0: 0 frames queued (active: YES)
[Parsed_mswitch_0 @ 0x13a80cbe0]   Input 1: 0 frames queued (active: NO)
[Parsed_mswitch_0 @ 0x13a80cbe0]   Input 2: 0 frames queued (active: NO)
frame= 1316 fps= 50 q=17.0 size=    2560KiB time=00:00:43.86 bitrate= 478.1kbits/s dup=46 drop=0 speed=1.67x elapsed=0:00:26.20    [Parsed_mswitch_0 @ 0x13a80cbe0] [MSwitch] Buffer status (frame 820):
[Parsed_mswitch_0 @ 0x13a80cbe0]   Input 0: 0 frames queued (active: YES)
[Parsed_mswitch_0 @ 0x13a80cbe0]   Input 1: 0 frames queued (active: NO)
[Parsed_mswitch_0 @ 0x13a80cbe0]   Input 2: 0 frames queued (active: NO)
[BUFFER_TRACK] FFmpeg - Phase: startup, time: 1759556055835ms, active: 0
frame= 1331 fps= 50 q=17.0 size=    2816KiB time=00:00:44.36 bitrate= 520.0kbits/s dup=46 drop=0 speed=1.66x elapsed=0:00:26.70    [Parsed_mswitch_0 @ 0x13a80cbe0] [MSwitch] Buffer status (frame 830):
[Parsed_mswitch_0 @ 0x13a80cbe0]   Input 0: 0 frames queued (active: YES)
[Parsed_mswitch_0 @ 0x13a80cbe0]   Input 1: 0 frames queued (active: NO)
[Parsed_mswitch_0 @ 0x13a80cbe0]   Input 2: 0 frames queued (active: NO)
[Parsed_mswitch_0 @ 0x13a80cbe0] [MSwitch] Buffer status (frame 840):
[Parsed_mswitch_0 @ 0x13a80cbe0]   Input 0: 0 frames queued (active: YES)
[Parsed_mswitch_0 @ 0x13a80cbe0]   Input 1: 0 frames queued (active: NO)
[Parsed_mswitch_0 @ 0x13a80cbe0]   Input 2: 0 frames queued (active: NO)
frame= 1347 fps= 50 q=16.0 size=    2816KiB time=00:00:44.90 bitrate= 513.8kbits/s dup=46 drop=0 speed=1.65x elapsed=0:00:27.21    [Parsed_mswitch_0 @ 0x13a80cbe0] [MSwitch] Buffer status (frame 850):
[Parsed_mswitch_0 @ 0x13a80cbe0]   Input 0: 0 frames queued (active: YES)
[Parsed_mswitch_0 @ 0x13a80cbe0]   Input 1: 0 frames queued (active: NO)
[Parsed_mswitch_0 @ 0x13a80cbe0]   Input 2: 0 frames queued (active: NO)
[Parsed_mswitch_0 @ 0x13a80cbe0] [MSwitch] Buffer status (frame 860):
[Parsed_mswitch_0 @ 0x13a80cbe0]   Input 0: 0 frames queued (active: YES)
[Parsed_mswitch_0 @ 0x13a80cbe0]   Input 1: 0 frames queued (active: NO)
[Parsed_mswitch_0 @ 0x13a80cbe0]   Input 2: 0 frames queued (active: NO)
frame= 1362 fps= 49 q=16.0 size=    2816KiB time=00:00:45.40 bitrate= 508.1kbits/s dup=46 drop=0 speed=1.64x elapsed=0:00:27.71    [Parsed_mswitch_0 @ 0x13a80cbe0] [MSwitch] Buffer status (frame 870):
[Parsed_mswitch_0 @ 0x13a80cbe0]   Input 0: 0 frames queued (active: YES)
[Parsed_mswitch_0 @ 0x13a80cbe0]   Input 1: 0 frames queued (active: NO)
[Parsed_mswitch_0 @ 0x13a80cbe0]   Input 2: 0 frames queued (active: NO)
frame= 1377 fps= 49 q=16.0 size=    2816KiB time=00:00:45.90 bitrate= 502.6kbits/s dup=46 drop=0 speed=1.63x elapsed=0:00:28.21    [Parsed_mswitch_0 @ 0x13a80cbe0] [MSwitch] Buffer status (frame 880):
[Parsed_mswitch_0 @ 0x13a80cbe0]   Input 0: 0 frames queued (active: YES)
[Parsed_mswitch_0 @ 0x13a80cbe0]   Input 1: 0 frames queued (active: NO)
[Parsed_mswitch_0 @ 0x13a80cbe0]   Input 2: 0 frames queued (active: NO)
[Parsed_mswitch_0 @ 0x13a80cbe0] [MSwitch] Buffer status (frame 890):
[Parsed_mswitch_0 @ 0x13a80cbe0]   Input 0: 0 frames queued (active: YES)
[Parsed_mswitch_0 @ 0x13a80cbe0]   Input 1: 0 frames queued (active: NO)
[Parsed_mswitch_0 @ 0x13a80cbe0]   Input 2: 0 frames queued (active: NO)
[BUFFER_TRACK] FFmpeg - Phase: startup, time: 1759556057853ms, active: 0
frame= 1392 fps= 48 q=16.0 size=    2816KiB time=00:00:46.40 bitrate= 497.2kbits/s dup=46 drop=0 speed=1.62x elapsed=0:00:28.72    [Parsed_mswitch_0 @ 0x13a80cbe0] [MSwitch] Buffer status (frame 900):
[Parsed_mswitch_0 @ 0x13a80cbe0]   Input 0: 0 frames queued (active: YES)
[Parsed_mswitch_0 @ 0x13a80cbe0]   Input 1: 0 frames queued (active: NO)
[Parsed_mswitch_0 @ 0x13a80cbe0]   Input 2: 0 frames queued (active: NO)
frame= 1407 fps= 48 q=16.0 size=    2816KiB time=00:00:46.90 bitrate= 491.9kbits/s dup=46 drop=0 speed= 1.6x elapsed=0:00:29.22    [Parsed_mswitch_0 @ 0x13a80cbe0] [MSwitch] Buffer status (frame 910):
[Parsed_mswitch_0 @ 0x13a80cbe0]   Input 0: 0 frames queued (active: YES)
[Parsed_mswitch_0 @ 0x13a80cbe0]   Input 1: 0 frames queued (active: NO)
[Parsed_mswitch_0 @ 0x13a80cbe0]   Input 2: 0 frames queued (active: NO)
[Parsed_mswitch_0 @ 0x13a80cbe0] [MSwitch] Buffer status (frame 920):
[Parsed_mswitch_0 @ 0x13a80cbe0]   Input 0: 0 frames queued (active: YES)
[Parsed_mswitch_0 @ 0x13a80cbe0]   Input 1: 0 frames queued (active: NO)
[Parsed_mswitch_0 @ 0x13a80cbe0]   Input 2: 0 frames queued (active: NO)
frame= 1422 fps= 48 q=16.0 size=    3072KiB time=00:00:47.40 bitrate= 530.9kbits/s dup=46 drop=0 speed=1.59x elapsed=0:00:29.72    [Parsed_mswitch_0 @ 0x13a80cbe0] [MSwitch] Buffer status (frame 930):
[Parsed_mswitch_0 @ 0x13a80cbe0]   Input 0: 0 frames queued (active: YES)
[Parsed_mswitch_0 @ 0x13a80cbe0]   Input 1: 0 frames queued (active: NO)
[Parsed_mswitch_0 @ 0x13a80cbe0]   Input 2: 0 frames queued (active: NO)
frame= 1437 fps= 48 q=16.0 size=    3072KiB time=00:00:47.90 bitrate= 525.4kbits/s dup=46 drop=0 speed=1.58x elapsed=0:00:30.23    [Parsed_mswitch_0 @ 0x13a80cbe0] [MSwitch] Buffer status (frame 940):
[Parsed_mswitch_0 @ 0x13a80cbe0]   Input 0: 0 frames queued (active: YES)
[Parsed_mswitch_0 @ 0x13a80cbe0]   Input 1: 0 frames queued (active: NO)
[Parsed_mswitch_0 @ 0x13a80cbe0]   Input 2: 0 frames queued (active: NO)
[Parsed_mswitch_0 @ 0x13a80cbe0] [MSwitch] Buffer status (frame 950):
[Parsed_mswitch_0 @ 0x13a80cbe0]   Input 0: 0 frames queued (active: YES)
[Parsed_mswitch_0 @ 0x13a80cbe0]   Input 1: 0 frames queued (active: NO)
[Parsed_mswitch_0 @ 0x13a80cbe0]   Input 2: 0 frames queued (active: NO)
[BUFFER_TRACK] FFmpeg - Phase: startup, time: 1759556059868ms, active: 0
frame= 1452 fps= 47 q=16.0 size=    3072KiB time=00:00:48.40 bitrate= 520.0kbits/s dup=46 drop=0 speed=1.57x elapsed=0:00:30.73    [Parsed_mswitch_0 @ 0x13a80cbe0] [MSwitch] Buffer status (frame 960):
[Parsed_mswitch_0 @ 0x13a80cbe0]   Input 0: 0 frames queued (active: YES)
[Parsed_mswitch_0 @ 0x13a80cbe0]   Input 1: 0 frames queued (active: NO)
[Parsed_mswitch_0 @ 0x13a80cbe0]   Input 2: 0 frames queued (active: NO)
[Parsed_mswitch_0 @ 0x13a80cbe0] [MSwitch] Buffer status (frame 970):
[Parsed_mswitch_0 @ 0x13a80cbe0]   Input 0: 0 frames queued (active: YES)
[Parsed_mswitch_0 @ 0x13a80cbe0]   Input 1: 0 frames queued (active: NO)
[Parsed_mswitch_0 @ 0x13a80cbe0]   Input 2: 0 frames queued (active: NO)
[Parsed_mswitch_0 @ 0x13a80cbe0] [MSwitch Filter] Uninitialized
[out#0/mpegts @ 0x13a80d860] Error writing trailer: Immediate exit requested
[out#0/mpegts @ 0x13a80d860] Error closing file: Immediate exit requested
[out#0/mpegts @ 0x13a80d860] video:2833KiB audio:0KiB subtitle:0KiB other streams:0KiB global headers:0KiB muxing overhead: 8.443464%
frame= 1488 fps= 48 q=-1.0 Lsize=    3072KiB time=00:00:49.60 bitrate= 507.4kbits/s dup=46 drop=0 speed=1.59x elapsed=0:00:31.22    
[libx264 @ 0x13a817400] frame I:25    Avg QP:12.96  size: 27946
[libx264 @ 0x13a817400] frame P:1463  Avg QP:15.72  size:  1505
[libx264 @ 0x13a817400] mb I  I16..4: 100.0%  0.0%  0.0%
[libx264 @ 0x13a817400] mb P  I16..4:  0.3%  0.0%  0.0%  P16..4:  0.4%  0.0%  0.0%  0.0%  0.0%    skip:99.4%
[libx264 @ 0x13a817400] coded y,uvDC,uvAC intra: 10.6% 11.1% 11.0% inter: 0.2% 0.3% 0.3%
[libx264 @ 0x13a817400] i16 v,h,dc,p: 91%  6%  2%  0%
[libx264 @ 0x13a817400] i8c dc,h,v,p: 89%  7%  5%  0%
[libx264 @ 0x13a817400] kb/s:467.87
[MSwitch] Stopping MSwitch controller
[MSwitch] Stopping webhook server
[MSwitch] Webhook server stopped
[MSwitch] MSwitch controller stopped
[MSwitch] Stopping MSwitch controller
[MSwitch] MSwitch controller stopped
[MSwitch] Command queue cleaned up
[MSwitch] MSwitch cleanup completed
Exiting normally, received signal 15.
